<svg id="visual" viewBox="0 0 900 600" width="900" height="600" xmlns="http://www.w3.org/2000/svg" xmlns:xlink="http://www.w3.org/1999/xlink" version="1.1"><rect x="0" y="0" width="900" height="600" fill="#ffffff"></rect><defs><linearGradient id="grad1_0" x1="33.3%" y1="100%" x2="100%" y2="0%"><stop offset="20%" stop-color="#ffb0c7" stop-opacity="1"></stop><stop offset="80%" stop-color="#ffb0c7" stop-opacity="1"></stop></linearGradient></defs><defs><linearGradient id="grad1_1" x1="33.3%" y1="100%" x2="100%" y2="0%"><stop offset="20%" stop-color="#ffb0c7" stop-opacity="1"></stop><stop offset="80%" stop-color="#ffcbd9" stop-opacity="1"></stop></linearGradient></defs><defs><linearGradient id="grad1_2" x1="33.3%" y1="100%" x2="100%" y2="0%"><stop offset="20%" stop-color="#ffe5ec" stop-opacity="1"></stop><stop offset="80%" stop-color="#ffcbd9" stop-opacity="1"></stop></linearGradient></defs><defs><linearGradient id="grad1_3" x1="33.3%" y1="100%" x2="100%" y2="0%"><stop offset="20%" stop-color="#ffe5ec" stop-opacity="1"></stop><stop offset="80%" stop-color="#ffffff" stop-opacity="1"></stop></linearGradient></defs><defs><linearGradient id="grad2_0" x1="0%" y1="100%" x2="66.7%" y2="0%"><stop offset="20%" stop-color="#ffb0c7" stop-opacity="1"></stop><stop offset="80%" stop-color="#ffb0c7" stop-opacity="1"></stop></linearGradient></defs><defs><linearGradient id="grad2_1" x1="0%" y1="100%" x2="66.7%" y2="0%"><stop offset="20%" stop-color="#ffcbd9" stop-opacity="1"></stop><stop offset="80%" stop-color="#ffb0c7" stop-opacity="1"></stop></linearGradient></defs><defs><linearGradient id="grad2_2" x1="0%" y1="100%" x2="66.7%" y2="0%"><stop offset="20%" stop-color="#ffcbd9" stop-opacity="1"></stop><stop offset="80%" stop-color="#ffe5ec" stop-opacity="1"></stop></linearGradient></defs><defs><linearGradient id="grad2_3" x1="0%" y1="100%" x2="66.7%" y2="0%"><stop offset="20%" stop-color="#ffffff" stop-opacity="1"></stop><stop offset="80%" stop-color="#ffe5ec" stop-opacity="1"></stop></linearGradient></defs><g transform="translate(900, 600)"><path d="M-513.8 0C-464 -47.7 -414.2 -95.3 -398.2 -164.9C-382.2 -234.6 -400.1 -326.2 -363.3 -363.3C-326.5 -400.4 -235 -383.1 -165.3 -399.1C-95.7 -415.1 -47.8 -464.5 0 -513.8L0 0Z" fill="#fff2f5"></path><path d="M-385.3 0C-348 -35.7 -310.6 -71.5 -298.6 -123.7C-286.7 -175.9 -300.1 -244.6 -272.5 -272.5C-244.9 -300.3 -176.2 -287.3 -124 -299.3C-71.7 -311.3 -35.9 -348.3 0 -385.3L0 0Z" fill="#ffd8e3"></path><path d="M-256.9 0C-232 -23.8 -207.1 -47.7 -199.1 -82.5C-191.1 -117.3 -200.1 -163.1 -181.7 -181.7C-163.2 -200.2 -117.5 -191.6 -82.7 -199.6C-47.8 -207.6 -23.9 -232.2 0 -256.9L0 0Z" fill="#ffbdd0"></path><path d="M-128.4 0C-116 -11.9 -103.5 -23.8 -99.5 -41.2C-95.6 -58.6 -100 -81.5 -90.8 -90.8C-81.6 -100.1 -58.7 -95.8 -41.3 -99.8C-23.9 -103.8 -12 -116.1 0 -128.4L0 0Z" fill="#ffb0c7"></path></g><g transform="translate(0, 0)"><path d="M513.8 0C498.4 67.5 483.1 134.9 449.9 186.4C416.8 237.8 365.8 273.2 323.9 323.9C281.9 374.5 249.1 440.5 196.6 474.7C144.2 508.9 72.1 511.3 0 513.8L0 0Z" fill="#fff2f5"></path><path d="M385.3 0C373.8 50.6 362.3 101.2 337.4 139.8C312.6 178.3 274.3 204.9 242.9 242.9C211.5 280.9 186.8 330.4 147.5 356C108.1 381.7 54.1 383.5 0 385.3L0 0Z" fill="#ffd8e3"></path><path d="M256.9 0C249.2 33.7 241.5 67.5 225 93.2C208.4 118.9 182.9 136.6 161.9 161.9C141 187.3 124.5 220.2 98.3 237.3C72.1 254.4 36 255.7 0 256.9L0 0Z" fill="#ffbdd0"></path><path d="M128.4 0C124.6 16.9 120.8 33.7 112.5 46.6C104.2 59.4 91.4 68.3 81 81C70.5 93.6 62.3 110.1 49.2 118.7C36 127.2 18 127.8 0 128.4L0 0Z" fill="#ffb0c7"></path></g></svg>