<svg id="visual" viewBox="0 0 900 600" width="900" height="600" xmlns="http://www.w3.org/2000/svg" xmlns:xlink="http://www.w3.org/1999/xlink" version="1.1"><rect x="0" y="0" width="900" height="600" fill="#fff4f8"></rect><defs><linearGradient id="grad1_0" x1="33.3%" y1="0%" x2="100%" y2="100%"><stop offset="20%" stop-color="#f9bac1" stop-opacity="1"></stop><stop offset="80%" stop-color="#f9bac1" stop-opacity="1"></stop></linearGradient></defs><defs><linearGradient id="grad1_1" x1="33.3%" y1="0%" x2="100%" y2="100%"><stop offset="20%" stop-color="#f9bac1" stop-opacity="1"></stop><stop offset="80%" stop-color="#fbc8d1" stop-opacity="1"></stop></linearGradient></defs><defs><linearGradient id="grad1_2" x1="33.3%" y1="0%" x2="100%" y2="100%"><stop offset="20%" stop-color="#fcd7e0" stop-opacity="1"></stop><stop offset="80%" stop-color="#fbc8d1" stop-opacity="1"></stop></linearGradient></defs><defs><linearGradient id="grad1_3" x1="33.3%" y1="0%" x2="100%" y2="100%"><stop offset="20%" stop-color="#fcd7e0" stop-opacity="1"></stop><stop offset="80%" stop-color="#fee5ed" stop-opacity="1"></stop></linearGradient></defs><defs><linearGradient id="grad1_4" x1="33.3%" y1="0%" x2="100%" y2="100%"><stop offset="20%" stop-color="#fff4f8" stop-opacity="1"></stop><stop offset="80%" stop-color="#fee5ed" stop-opacity="1"></stop></linearGradient></defs><defs><linearGradient id="grad2_0" x1="0%" y1="0%" x2="66.7%" y2="100%"><stop offset="20%" stop-color="#f9bac1" stop-opacity="1"></stop><stop offset="80%" stop-color="#f9bac1" stop-opacity="1"></stop></linearGradient></defs><defs><linearGradient id="grad2_1" x1="0%" y1="0%" x2="66.7%" y2="100%"><stop offset="20%" stop-color="#fbc8d1" stop-opacity="1"></stop><stop offset="80%" stop-color="#f9bac1" stop-opacity="1"></stop></linearGradient></defs><defs><linearGradient id="grad2_2" x1="0%" y1="0%" x2="66.7%" y2="100%"><stop offset="20%" stop-color="#fbc8d1" stop-opacity="1"></stop><stop offset="80%" stop-color="#fcd7e0" stop-opacity="1"></stop></linearGradient></defs><defs><linearGradient id="grad2_3" x1="0%" y1="0%" x2="66.7%" y2="100%"><stop offset="20%" stop-color="#fee5ed" stop-opacity="1"></stop><stop offset="80%" stop-color="#fcd7e0" stop-opacity="1"></stop></linearGradient></defs><defs><linearGradient id="grad2_4" x1="0%" y1="0%" x2="66.7%" y2="100%"><stop offset="20%" stop-color="#fee5ed" stop-opacity="1"></stop><stop offset="80%" stop-color="#fff4f8" stop-opacity="1"></stop></linearGradient></defs><g transform="translate(900, 0)"><path d="M0 513.8C-75.7 508.1 -151.3 502.4 -188.3 454.5C-225.2 406.7 -223.5 316.7 -273.7 273.7C-323.8 230.6 -426 234.4 -474.7 196.6C-523.4 158.8 -518.6 79.4 -513.8 0L0 0Z" fill="#feedf2"></path><path d="M0 411C-60.5 406.5 -121.1 401.9 -150.6 363.6C-180.2 325.4 -178.8 253.4 -218.9 218.9C-259.1 184.5 -340.8 187.5 -379.7 157.3C-418.7 127.1 -414.9 63.5 -411 0L0 0Z" fill="#fddee6"></path><path d="M0 308.3C-45.4 304.9 -90.8 301.4 -113 272.7C-135.1 244 -134.1 190 -164.2 164.2C-194.3 138.3 -255.6 140.6 -284.8 118C-314 95.3 -311.1 47.6 -308.3 0L0 0Z" fill="#fcd0d8"></path><path d="M0 205.5C-30.3 203.2 -60.5 201 -75.3 181.8C-90.1 162.7 -89.4 126.7 -109.5 109.5C-129.5 92.2 -170.4 93.8 -189.9 78.6C-209.3 63.5 -207.4 31.8 -205.5 0L0 0Z" fill="#fac1c9"></path><path d="M0 102.8C-15.1 101.6 -30.3 100.5 -37.7 90.9C-45 81.3 -44.7 63.3 -54.7 54.7C-64.8 46.1 -85.2 46.9 -94.9 39.3C-104.7 31.8 -103.7 15.9 -102.8 0L0 0Z" fill="#f9bac1"></path></g><g transform="translate(0, 600)"><path d="M0 -513.8C46.5 -456.9 93 -400.1 158.8 -383.4C224.6 -366.7 309.6 -390.2 363.3 -363.3C417 -336.4 439.3 -259.1 459.2 -190.2C479 -121.2 496.4 -60.6 513.8 0L0 0Z" fill="#feedf2"></path><path d="M0 -411C37.2 -365.6 74.4 -320.1 127.1 -306.7C179.7 -293.4 247.7 -312.2 290.6 -290.6C333.6 -269.1 351.5 -207.3 367.3 -152.2C383.2 -97 397.1 -48.5 411 0L0 0Z" fill="#fddee6"></path><path d="M0 -308.3C27.9 -274.2 55.8 -240.1 95.3 -230C134.8 -220 185.8 -234.1 218 -218C250.2 -201.8 263.6 -155.5 275.5 -114.1C287.4 -72.7 297.8 -36.4 308.3 0L0 0Z" fill="#fcd0d8"></path><path d="M0 -205.5C18.6 -182.8 37.2 -160 63.5 -153.4C89.8 -146.7 123.8 -156.1 145.3 -145.3C166.8 -134.6 175.7 -103.7 183.7 -76.1C191.6 -48.5 198.6 -24.2 205.5 0L0 0Z" fill="#fac1c9"></path><path d="M0 -102.8C9.3 -91.4 18.6 -80 31.8 -76.7C44.9 -73.3 61.9 -78 72.7 -72.7C83.4 -67.3 87.9 -51.8 91.8 -38C95.8 -24.2 99.3 -12.1 102.8 0L0 0Z" fill="#f9bac1"></path></g></svg>