<svg id="visual" viewBox="0 0 960 540" width="960" height="540" xmlns="http://www.w3.org/2000/svg" xmlns:xlink="http://www.w3.org/1999/xlink" version="1.1"><path d="M0 82L69 82L69 50L137 50L137 71L206 71L206 82L274 82L274 50L343 50L343 50L411 50L411 71L480 71L480 77L549 77L549 44L617 44L617 71L686 71L686 55L754 55L754 77L823 77L823 71L891 71L891 77L960 77L960 44L960 0L960 0L891 0L891 0L823 0L823 0L754 0L754 0L686 0L686 0L617 0L617 0L549 0L549 0L480 0L480 0L411 0L411 0L343 0L343 0L274 0L274 0L206 0L206 0L137 0L137 0L69 0L69 0L0 0Z" fill="#ffffff"></path><path d="M0 206L69 206L69 195L137 195L137 244L206 244L206 212L274 212L274 233L343 233L343 163L411 163L411 190L480 190L480 212L549 212L549 185L617 185L617 239L686 239L686 158L754 158L754 195L823 195L823 217L891 217L891 174L960 174L960 179L960 42L960 75L891 75L891 69L823 69L823 75L754 75L754 53L686 53L686 69L617 69L617 42L549 42L549 75L480 75L480 69L411 69L411 48L343 48L343 48L274 48L274 80L206 80L206 69L137 69L137 48L69 48L69 80L0 80Z" fill="#ffeff2"></path><path d="M0 336L69 336L69 309L137 309L137 330L206 330L206 347L274 347L274 341L343 341L343 330L411 330L411 336L480 336L480 341L549 341L549 298L617 298L617 330L686 330L686 309L754 309L754 320L823 320L823 336L891 336L891 303L960 303L960 330L960 177L960 172L891 172L891 215L823 215L823 193L754 193L754 156L686 156L686 237L617 237L617 183L549 183L549 210L480 210L480 188L411 188L411 161L343 161L343 231L274 231L274 210L206 210L206 242L137 242L137 193L69 193L69 204L0 204Z" fill="#ffdee5"></path><path d="M0 390L69 390L69 347L137 347L137 390L206 390L206 395L274 395L274 374L343 374L343 368L411 368L411 368L480 368L480 390L549 390L549 347L617 347L617 368L686 368L686 363L754 363L754 357L823 357L823 374L891 374L891 363L960 363L960 384L960 328L960 301L891 301L891 334L823 334L823 318L754 318L754 307L686 307L686 328L617 328L617 296L549 296L549 339L480 339L480 334L411 334L411 328L343 328L343 339L274 339L274 345L206 345L206 328L137 328L137 307L69 307L69 334L0 334Z" fill="#ffced8"></path><path d="M0 455L69 455L69 449L137 449L137 455L206 455L206 455L274 455L274 460L343 460L343 444L411 444L411 433L480 433L480 449L549 449L549 449L617 449L617 428L686 428L686 476L754 476L754 455L823 455L823 465L891 465L891 460L960 460L960 465L960 382L960 361L891 361L891 372L823 372L823 355L754 355L754 361L686 361L686 366L617 366L617 345L549 345L549 388L480 388L480 366L411 366L411 366L343 366L343 372L274 372L274 393L206 393L206 388L137 388L137 345L69 345L69 388L0 388Z" fill="#ffbecc"></path><path d="M0 509L69 509L69 509L137 509L137 509L206 509L206 498L274 498L274 503L343 503L343 509L411 509L411 498L480 498L480 492L549 492L549 492L617 492L617 492L686 492L686 514L754 514L754 492L823 492L823 514L891 514L891 514L960 514L960 509L960 463L960 458L891 458L891 463L823 463L823 453L754 453L754 474L686 474L686 426L617 426L617 447L549 447L549 447L480 447L480 431L411 431L411 442L343 442L343 458L274 458L274 453L206 453L206 453L137 453L137 447L69 447L69 453L0 453Z" fill="#ffadbf"></path><path d="M0 541L69 541L69 541L137 541L137 541L206 541L206 541L274 541L274 541L343 541L343 541L411 541L411 541L480 541L480 541L549 541L549 541L617 541L617 541L686 541L686 541L754 541L754 541L823 541L823 541L891 541L891 541L960 541L960 541L960 507L960 512L891 512L891 512L823 512L823 490L754 490L754 512L686 512L686 490L617 490L617 490L549 490L549 490L480 490L480 496L411 496L411 507L343 507L343 501L274 501L274 496L206 496L206 507L137 507L137 507L69 507L69 507L0 507Z" fill="#ff9cb3"></path></svg>